# xmcd CD database file
#
# Track frame offsets:
#	150
#	12395
#	27479
#	46150
#	90660
#	126764
#	142557
#	159906
#	187730
#	211352
#	248858
#	261683
#	287565
#	330571
#
# Disc length: 4822 seconds
#
# Revision: 0
# Processed by: cddbd v1.5.1PL2 Copyright (c) Steve Scherf et al.
# Submitted via: Feurio! 1.68 - http://www.feurio.com
#
DISCID=bb12d40e
DTITLE=Rory Gallager - Pop Giant Live In Europe
DYEAR=1900
DGENRE=
TTITLE0=What's Going On
TTITLE1=Blister On The Moon
TTITLE2=Leaving Blues
TTITLE3=Catfish
TTITLE4=Sugar Mama
TTITLE5=Railway And Gun
TTITLE6=Feel So Good, Part II
TTITLE7=Messin' With The Kid
TTITLE8=Laundromat
TTITLE9=I Could've Had Religion
TTITLE10=Pistol Slapper Blues
TTITLE11=Going To My Home Town
TTITLE12=In Your Town
TTITLE13=Bullfrog Blues
EXTD=
EXTT0=
EXTT1=
EXTT2=
EXTT3=
EXTT4=
EXTT5=
EXTT6=
EXTT7=
EXTT8=
EXTT9=
EXTT10=
EXTT11=
EXTT12=
EXTT13=
PLAYORDER=
